# xmcd CD database file
#
# Track frame offsets:
#	150
#	12640
#	25912
#	41600
#	60465
#	71000
#	92382
#	107307
#	128237
#	153912
#	171810
#	185547
#	201585
#
# Disc length: 2995 seconds
#
# Revision: 0
# Processed by: cddbd v1.5PL3 Copyright (c) Steve Scherf et al.
# Submitted via: CDex 1.51
#
DISCID=a90bb10d
DTITLE=Bernie Torme - Turn Out The Lights
DYEAR=1982
DGENRE=Hard Rock
TTITLE0=America
TTITLE1=Painter Man
TTITLE2=Turn Out The Lights
TTITLE3=Chelsea Girls
TTITLE4=India
TTITLE5=Oh No!
TTITLE6=Lies
TTITLE7=No Reply
TTITLE8=Getting There
TTITLE9=Possession
TTITLE10=Try And Stop Me
TTITLE11=Whats Next
TTITLE12=Back With The Boys
EXTD=YEAR: 1982
EXTT0=
EXTT1=
EXTT2=
EXTT3=
EXTT4=
EXTT5=
EXTT6=
EXTT7=
EXTT8=
EXTT9=
EXTT10=
EXTT11=
EXTT12=
PLAYORDER=
